<svg xmlns="http://www.w3.org/2000/svg" viewBox="0 0 128 128" role="img" aria-labelledby="title desc">
  <title id="title">Onchain SMS</title>
  <desc id="desc">Connected chain links forming a message bubble</desc>
  <defs><linearGradient id="g" x1="18" y1="16" x2="110" y2="112" gradientUnits="userSpaceOnUse"><stop stop-color="#47FFD0"/><stop offset="1" stop-color="#14F195"/></linearGradient></defs>
  <rect width="128" height="128" rx="30" fill="#07110F"/>
  <path d="M39 34h19c12 0 21 9 21 21s-9 21-21 21H45c-12 0-21-9-21-21 0-6 2-11 6-15" fill="none" stroke="url(#g)" stroke-width="10" stroke-linecap="round"/>
  <path d="M89 94H70c-12 0-21-9-21-21s9-21 21-21h13c12 0 21 9 21 21 0 6-2 11-6 15" fill="none" stroke="url(#g)" stroke-width="10" stroke-linecap="round"/>
  <path d="M77 95h20l-2 17-18-17Z" fill="url(#g)"/>
  <circle cx="58" cy="73" r="4" fill="#07110F"/><circle cx="70" cy="73" r="4" fill="#07110F"/><circle cx="82" cy="73" r="4" fill="#07110F"/>
</svg>
